HIERARCHY
ROOT pelvis
{
  OFFSET 0 100 0
  CHANNELS 6 Xposition Yposition Zposition Zrotation Xrotation Yrotation
  JOINT pelvis_right_femur
  {
    OFFSET -10.78128 -3.44521 -0.5502486
    CHANNELS 3 Zrotation Xrotation Yrotation
    JOINT right_femur_tibia
    {
      OFFSET -0.8047443 -44.0398 -0.1307829
      CHANNELS 3 Zrotation Xrotation Yrotation
      JOINT right_tibia_foot
      {
        OFFSET 3.006224 -47.83518 -5
        CHANNELS 3 Zrotation Xrotation Yrotation
        End Site
        {
          OFFSET 0 -5 15
        }
      }
    }
  }
  JOINT pelvis_left_femur
  {
    OFFSET 10.78128 -3.44521 -0.5502486
    CHANNELS 3 Zrotation Xrotation Yrotation
    JOINT left_femur_tibia
    {
      OFFSET 0.8047443 -44.0398 -0.1307829
      CHANNELS 3 Zrotation Xrotation Yrotation
      JOINT left_tibia_foot
      {
        OFFSET -4.370144 -48.10324 -4.275266
        CHANNELS 3 Zrotation Xrotation Yrotation
        End Site
        {
          OFFSET 0 -5 15
        }
      }
    }
  }
  JOINT pelvis_spine1
  {
    OFFSET 0 6.468898 -3.129235
    CHANNELS 3 Zrotation Xrotation Yrotation
    JOINT spine1
    {
      OFFSET 0 23.15396 4.99043
      CHANNELS 3 Zrotation Xrotation Yrotation
      JOINT spine2
      {
        OFFSET 0 20.79997 -5.064912
        CHANNELS 3 Zrotation Xrotation Yrotation
        JOINT neck
        {
          OFFSET 0 14.38658 9.616178
          CHANNELS 3 Zrotation Xrotation Yrotation
          End Site
          {
            OFFSET 0 20 0
          }
        }
      }
      JOINT right_manubrium
      {
        OFFSET -5.722621 16.35077 3.967754
        CHANNELS 3 Zrotation Xrotation Yrotation
        JOINT right_clavicle
        {
          OFFSET -13.16364 1.694482 -4.693211
          CHANNELS 3 Zrotation Xrotation Yrotation
          JOINT right_humerus
          {
            OFFSET -28.5034 -0.3100689 -2.792744
            CHANNELS 3 Zrotation Xrotation Yrotation
            JOINT right_radius
            {
              OFFSET -25.15693 0.02248979 -1.271978
              CHANNELS 3 Zrotation Xrotation Yrotation
              End Site
              {
                OFFSET -15 0 0
              }
            }
          }
        }
      }
      JOINT left_manubrium
      {
        OFFSET 5.722621 16.35077 3.967754
        CHANNELS 3 Zrotation Xrotation Yrotation
        JOINT left_clavicle
        {
          OFFSET 13.16364 1.694482 -4.693211
          CHANNELS 3 Zrotation Xrotation Yrotation
          JOINT left_humerus
          {
            OFFSET 29.39168 -1.063119 -2.237045
            CHANNELS 3 Zrotation Xrotation Yrotation
            JOINT left_radius
            {
              OFFSET 24.59957 -0.9528479 0.9047498
              CHANNELS 3 Zrotation Xrotation Yrotation
              End Site
              {
                OFFSET 15 -0 -0
              }
            }
          }
        }
      }
    }
  }
}
MOTION
Frames: 11
Frame Time: 0.0416666666667
0 103.5113 0 0.3389862 0.6086595 -0.05206184 4.825144 -20.38434 10.31366 -0 35.77697 -0 -5.102742 -16.90982 -3.240216 -6.893427 10.12744 -23.11971 -0 5.954143 -0 11.27931 -16.65946 27.78491 -3.615333 -3.866699 4.985901 3.115602 9.864017 -8.159243 1.616131 21.54597 6.411561 2.779396 -25.83 9.860085 6.772522 -20.46495 11.64571 84.97289 36.28197 -19.0239 -0 0 17.39814 -6.462881 8.720436 3.974713 5.949992 -19.48225 -0.9357972 -94.41023 24.9917 22.74722 0 0 -13.98385 11.00587 16.89469 1.478297
0.3044017 104.13 1.677068 0.1420518 0.4607001 -0.030534 4.87704 -22.04544 9.366202 -0 34.78464 -0 -5.452453 -15.08086 -2.983152 -6.647307 10.70453 -22.30904 -0 5.977774 -0 10.27013 -17.82251 26.72 -3.521973 -3.327487 4.586449 3.125706 9.730418 -8.132837 1.55209 21.59915 6.599806 2.867777 -25.85115 9.860556 6.375756 -20.10819 11.59993 85.35232 35.48583 -19.22628 -0 0 16.56514 -7.163237 8.561297 4.286059 6.0686 -19.80379 -1.122025 -93.74312 25.05209 21.82118 0 0 -14.8296 10.69566 16.80643 1.727882
0.6108683 104.6219 3.744864 -0.2769728 1.155476 0.06537816 5.595858 -25.39883 8.645443 -0 31.26221 -0 -5.521064 -12.69594 -2.520773 -6.327413 11.45282 -21.26216 -0 5.913435 -0 9.442895 -19.64424 25.6939 -3.441047 -2.784005 4.285256 3.451495 9.606467 -8.355526 1.473722 21.14084 6.871212 3.047559 -26.49341 9.986256 6.172001 -19.78862 11.60631 85.48698 35.26076 -19.59536 -0 0 15.92579 -7.585222 8.705091 4.517822 6.53429 -20.28517 -0.8645427 -93.12106 24.26927 20.96658 0 0 -15.82527 11.09451 16.25171 0.9910499
0.9126372 104.9801 6.22867 -0.6932368 1.926407 0.2490762 6.346586 -28.50145 8.067516 -0 27.68963 -0 -5.593731 -10.49596 -2.084782 -6.018669 12.24089 -20.2441 -0 6.118746 -0 8.45576 -21.18582 24.54142 -3.30344 -2.312407 4.003151 3.746873 9.462551 -8.568889 1.397316 20.65913 7.147727 3.239165 -27.07843 10.11193 5.978824 -19.41278 11.5898 85.67316 35.14373 -20.03515 -0 0 15.26844 -7.856595 8.879205 4.654615 6.995607 -20.72899 -0.5963042 -92.52933 23.54801 20.1273 0 0 -16.89244 11.51759 15.61569 0.2427349
1.206058 105.233 9.176597 -1.142685 2.819014 0.5349528 7.202051 -31.41639 7.659837 -0 24.04597 -0 -5.684159 -8.406415 -1.672873 -5.691897 13.09114 -19.22569 -0 6.746175 -0 7.157554 -22.44266 23.11466 -3.080655 -1.898867 3.719303 4.022447 9.287619 -8.78826 1.309949 20.12059 7.448357 3.459176 -27.63233 10.22835 5.821355 -18.95832 11.55792 85.91158 35.1757 -20.58132 -0 0 14.58621 -7.964855 9.107804 4.706791 7.429051 -21.12887 -0.3223871 -91.97903 22.95095 19.35011 0 0 -18.07303 11.82295 14.87454 -0.3514495
1.488135 105.4225 12.63744 -1.623797 3.735307 0.9320309 8.108754 -33.87494 7.386314 -0 20.65943 -0 -5.861985 -6.452023 -1.304652 -5.33803 13.94817 -18.19329 -0 8.049424 -0 5.443465 -23.19306 21.28867 -2.732037 -1.540321 3.412724 4.236638 9.085536 -8.980835 1.208527 19.58474 7.762165 3.697939 -28.07947 10.3032 5.678584 -18.40155 11.51227 86.25132 35.2819 -21.22116 -0 0 13.8181 -7.959591 9.368192 4.70877 7.757046 -21.45762 -0.1289415 -91.45235 22.57498 18.63399 0 0 -19.33526 11.89996 14.06861 -0.624446
1.75909 105.6162 16.6491 -2.130019 4.574765 1.433714 8.996055 -35.53972 7.206449 -0 17.84751 -0 -6.185589 -4.738516 -1.001393 -4.951131 14.68416 -17.15295 -0 10.35788 -0 3.301662 -23.15292 19.01876 -2.223557 -1.252365 3.085865 4.360384 8.872556 -9.11948 1.092577 19.11529 8.059546 3.935006 -28.35931 10.29627 5.551569 -17.74434 11.46406 86.70311 35.40076 -21.91706 -0 0 12.94462 -7.891536 9.650111 4.702305 7.891639 -21.67718 -0.09562167 -90.97243 22.48129 18.02967 0 0 -20.54932 11.66814 13.25995 -0.4449067
2.02389 105.9094 21.22366 -2.635744 5.201098 2.004609 9.744337 -36.01048 7.035345 -0 15.91421 -0 -6.703316 -3.437774 -0.7815695 -4.53442 15.08347 -16.11495 -0 14.06089 -0 0.8632663 -22.02246 16.39738 -1.542272 -1.053934 2.76674 4.372829 8.682166 -9.177118 0.9634764 18.79585 8.294065 4.136906 -28.41495 10.1633 5.446502 -17.0186 11.43303 87.24661 35.45967 -22.59603 -0 0 11.96703 -7.842408 9.943544 4.743534 7.747656 -21.75422 -0.2917414 -90.57855 22.677 17.59921 0 0 -21.51192 11.10677 12.52627 0.2403559
2.29292 106.4221 26.3314 -3.089881 5.4608 2.57204 10.21033 -34.92156 6.763026 -0 15.04708 -0 -7.427038 -2.762602 -0.6575434 -4.103196 14.83758 -15.08535 -0 19.53037 -0 -1.590552 -19.62203 13.68095 -0.721018 -0.9510389 2.517088 4.273137 8.562887 -9.134573 0.8239651 18.71147 8.410017 4.262578 -28.21443 9.869118 5.379616 -16.29691 11.4472 87.81013 35.40114 -23.14583 -0 0 10.92891 -7.920837 10.24414 4.896616 7.273384 -21.67243 -0.7381346 -90.32308 23.0935 17.41247 0 0 -21.98066 10.25957 11.94042 1.379095
2.580121 107.2817 31.88792 -3.410604 5.216123 3.032063 10.27682 -32.07527 6.299998 -0 15.19278 -0 -8.302069 -2.901288 -0.6297648 -3.690164 13.57551 -14.05356 -0 26.94524 -0 -3.703213 -16.06163 11.2387 0.1363532 -0.913925 2.432076 4.083577 8.56798 -8.981993 0.6793431 18.92204 8.359003 4.274423 -27.7644 9.406694 5.370746 -15.6908 11.53642 88.27078 35.21194 -23.42231 -0 0 9.925713 -8.24477 10.55188 5.219225 6.490222 -21.44931 -1.371208 -90.2424 23.57725 17.51607 0 0 -21.77045 9.240981 11.53677 2.789587
2.897793 108.5837 37.75141 -3.49266 4.403512 3.281346 9.902854 -27.57264 5.631291 -0 15.96493 -0 -9.184758 -3.920348 -0.6778905 -3.343522 10.95138 -12.99249 -0 36.01694 -0 -5.185212 -11.85083 9.430487 0.8481386 -0.8647362 2.622151 3.839705 8.733322 -8.713613 0.5388866 19.42729 8.124371 4.155524 -27.11149 8.812355 5.430994 -15.32771 11.72003 88.47989 34.95394 -23.2758 -0 0 9.102516 -8.898553 10.86437 5.741925 5.518553 -21.1438 -2.035014 -90.31723 23.92778 17.89825 0 0 -20.8929 8.212278 11.27462 4.19607
